#!OML:ASF E:\acrobat2\Project_11_07_03\Capture day 1\Session 1\Acrobat.ASF
:FULLY-SPECIFIED
:DEGREES
97
root 8.33532 18.0694 -0.290873 2.90689 -57.3053 1.41805
lowerback -6.97639 1.38953 2.09816
upperback -0.640091 1.72967 -1.5253
thorax 3.35987 0.89476 -2.58681
lowerneck -0.287916 -0.976213 -2.74096
upperneck 6.96167 -1.63135 5.46
head 2.34059 -0.768856 2.1997
rclavicle 1.37447e-013 4.17448e-015
rhumerus -39.8557 -13.02 -80.1301
rradius 25.504
rwrist 4.15185
rhand -8.75705 -39.1803
rfingers 7.12502
rthumb 17.1803 -68.4408
lclavicle 1.37447e-013 4.17448e-015
lhumerus -32.7281 -0.283035 82.7661
lradius 22.1425
lwrist 8.37071
lhand -2.46834 -13.751
lfingers 7.12502
lthumb 23.2241 14.8686
rfemur 10.2486 14.7724 18.5899
rtibia -3.55131
rfoot -25.0203 -28.9334
rtoes 6.42226
lfemur 1.65957 -4.84763 -9.12195
ltibia -2.42154
lfoot -9.08093 4.9246
ltoes 26.6951
98
root 8.33169 18.0669 -0.288422 2.71894 -57.311 1.65271
lowerback -6.99186 1.35895 1.93644
upperback -0.672524 1.70068 -1.52824
thorax 3.32846 0.877112 -2.50172
lowerneck -0.291238 -0.965414 -2.73119
upperneck 7.10192 -1.62792 5.50707
head 2.38821 -0.765294 2.2151
rclavicle -5.91128e-014 -3.97569e-015
rhumerus -39.8729 -13.1386 -80.0538
rradius 25.4611
rwrist 4.32451
rhand -8.63582 -39.028
rfingers 7.12502
rthumb 17.297 -68.2783
lclavicle -5.91128e-014 -3.97569e-015
lhumerus -32.813 0.0288851 82.6801
lradius 22.1484
lwrist 8.40206
lhand -2.09487 -13.6935
lfingers 7.12502
lthumb 23.5824 14.8806
rfemur 10.2335 14.6002 18.3813
rtibia -3.56194
rfoot -24.8399 -28.8421
rtoes 5.95922
lfemur 1.69084 -4.92452 -9.31504
ltibia -2.45376
lfoot -9.06319 5.03533
ltoes 25.9819
99
root 8.32784 18.0651 -0.286598 2.56375 -57.2921 1.81239
lowerback -7.00721 1.32625 1.82286
upperback -0.670165 1.66535 -1.52075
thorax 3.3339 0.857917 -2.43321
lowerneck -0.22019 -0.960841 -2.8277
upperneck 7.05712 -1.62148 5.55332
head 2.36241 -0.764877 2.24773
rclavicle 4.64193e-015 -5.76476e-015
rhumerus -39.8785 -13.1997 -79.9986
rradius 25.5098
rwrist 4.4186
rhand -8.67038 -38.8966
rfingers 7.12502
rthumb 17.2637 -68.1498
lclavicle 4.64193e-015 -5.76476e-015
lhumerus -32.8735 0.225914 82.6777
lradius 22.1903
lwrist 8.36211
lhand -2.03349 -13.645
lfingers 7.12502
lthumb 23.6413 14.9214
rfemur 10.2886 14.4887 18.2588
rtibia -3.60726
rfoot -24.6627 -28.8509
rtoes 5.44289
lfemur 1.74182 -4.95661 -9.44214
ltibia -2.47905
lfoot -9.04725 5.01
ltoes 26.539
100
root 8.32455 18.0641 -0.286042 2.4613 -57.292 1.90609
lowerback -7.02657 1.32394 1.75275
upperback -0.649961 1.66774 -1.52435
thorax 3.36387 0.858677 -2.39662
lowerneck -0.163405 -0.9576 -2.78428
upperneck 7.01931 -1.6195 5.58028
head 2.33928 -0.763387 2.2484
rclavicle 1.56861e-014 5.1684e-015
rhumerus -39.8731 -13.167 -80.0265
rradius 25.6089
rwrist 4.35723
rhand -8.56643 -38.5989
rfingers 7.12502
rthumb 17.3638 -67.8433
lclavicle 1.56861e-014 5.1684e-015
lhumerus -32.8663 0.122244 82.7805
lradius 22.178
lwrist 8.46716
lhand -2.23724 -13.7703
lfingers 7.12502
lthumb 23.4458 14.8213
rfemur 10.3413 14.4513 18.202
rtibia -3.65594
rfoot -24.4972 -28.9769
rtoes 4.95248
lfemur 1.77267 -4.91611 -9.50048
ltibia -2.47333
lfoot -9.09593 4.92152
ltoes 27.3132
101
root 8.32203 18.0638 -0.285687 2.45634 -57.3049 1.91978
lowerback -7.05816 1.32472 1.72617
upperback -0.646063 1.67026 -1.5187
thorax 3.38478 0.859731 -2.37488
lowerneck -0.101393 -1.12023 -2.65823
upperneck 6.8752 -1.82873 5.48808
head 2.28659 -0.868262 2.18887
rclavicle 4.34049e-014 -1.78906e-015
rhumerus -39.8708 -12.8979 -80.2218
rradius 25.7408
rwrist 4.094
rhand -8.66283 -38.6432
rfingers 7.12502
rthumb 17.271 -67.8958
lclavicle 4.34049e-014 -1.78906e-015
lhumerus -32.8609 0.00265934 82.877
lradius 22.1835
lwrist 8.49324
lhand -2.51632 -13.8919
lfingers 7.12502
lthumb 23.1781 14.7336
rfemur 10.3322 14.4308 18.1901
rtibia -3.66038
rfoot -24.3535 -29.0486
rtoes 4.58765
lfemur 1.79626 -5.05099 -9.51404
ltibia -2.51062
lfoot -9.27845 4.95816
ltoes 27.7259
102
root 8.31977 18.0639 -0.285464 2.42236 -57.3062 1.98255
lowerback -7.09198 1.32135 1.68091
upperback -0.647184 1.66898 -1.5246
thorax 3.40135 0.858559 -2.355
lowerneck 0.0156532 -1.3266 -2.46104
upperneck 6.62983 -2.08611 5.27719
head 2.18886 -0.999357 2.07585
rclavicle -1.0438e-013 -9.93923e-016
rhumerus -39.877 -12.5995 -80.4353
rradius 25.8879
rwrist 3.85492
rhand -8.83033 -38.8686
rfingers 7.12502
rthumb 17.1098 -68.1352
lclavicle -1.0438e-013 -9.93923e-016
lhumerus -32.8829 -0.261895 83.0164
lradius 22.2649
lwrist 8.50485
lhand -2.99145 -14.0165
lfingers 7.12502
lthumb 22.7222 14.6656
rfemur 10.3078 14.3596 18.1285
rtibia -3.67369
rfoot -24.1183 -29.0662
rtoes 4.03763
lfemur 1.81973 -5.2812 -9.57276
ltibia -2.57255
lfoot -9.49485 5.02834
ltoes 28.461
103
root 8.31731 18.0632 -0.285707 2.35895 -57.3264 2.01442
lowerback -7.06946 1.32884 1.64894
upperback -0.633689 1.6818 -1.52084
thorax 3.40237 0.864657 -2.33208
lowerneck -0.153657 -1.17174 -2.71088
upperneck 6.9382 -1.89905 5.49195
head 2.32114 -0.903294 2.19883
rclavicle -1.37301e-014 4.17448e-015
rhumerus -39.8839 -12.4712 -80.5411
rradius 26.0088
rwrist 3.74963
rhand -8.95871 -39.0792
rfingers 7.12502
rthumb 16.9862 -68.3565
lclavicle -1.37301e-014 4.17448e-015
lhumerus -32.9054 -0.558501 83.1869
lradius 22.364
lwrist 8.67913
lhand -3.32737 -14.0012
lfingers 7.12502
lthumb 22.3998 14.72
rfemur 10.3405 14.2343 18.0903
rtibia -3.69468
rfoot -23.881 -29.0305
rtoes 3.48338
lfemur 1.88791 -5.29325 -9.60123
ltibia -2.59059
lfoot -9.53687 5.04374
ltoes 28.6815
104
root 8.31533 18.0623 -0.28577 2.26945 -57.3331 2.09998
lowerback -7.05263 1.31579 1.56644
upperback -0.641114 1.6704 -1.50576
thorax 3.38179 0.857396 -2.27157
lowerneck -0.100117 -1.18369 -2.7179
upperneck 6.91905 -1.90954 5.41216
head 2.30415 -0.911376 2.1731
rclavicle 3.36738e-014 4.37326e-015
rhumerus -39.9181 -12.0094 -80.7733
rradius 26.2033
rwrist 3.28956
rhand -9.12609 -39.4415
rfingers 7.12502
rthumb 16.8251 -68.7326
lclavicle 3.36738e-014 4.37326e-015
lhumerus -32.9443 -0.538062 83.2483
lradius 22.4618
lwrist 8.77449
lhand -3.28225 -13.9249
lfingers 7.12502
lthumb 22.4431 14.7912
rfemur 10.3481 14.1064 18.0066
rtibia -3.71471
rfoot -23.6644 -29.0399
rtoes 2.76942
lfemur 1.89843 -5.12447 -9.65226
ltibia -2.55539
lfoot -9.34583 5.04395
ltoes 27.6714
105
root 8.31453 18.0623 -0.285551 2.12128 -57.3091 2.30316
lowerback -7.05587 1.29793 1.4444
upperback -0.662149 1.65624 -1.52404
thorax 3.35814 0.84815 -2.2234
lowerneck -0.0797205 -1.18828 -2.79226
upperneck 6.9762 -1.91982 5.44964
head 2.32181 -0.917623 2.1994
rclavicle -5.39079e-014 3.97569e-015
rhumerus -39.952 -11.6764 -80.9401
rradius 26.3447
rwrist 2.94015
rhand -9.18914 -39.6449
rfingers 7.12502
rthumb 16.7644 -68.9412
lclavicle -5.39079e-014 3.97569e-015
lhumerus -32.9783 -0.728355 83.3604
lradius 22.5804
lwrist 9.02651
lhand -3.43094 -14.049
lfingers 7.12502
lthumb 22.3003 14.6842
rfemur 10.3151 13.9833 17.8322
rtibia -3.72605
rfoot -23.4418 -29.0889
rtoes 2.00709
lfemur 1.85129 -5.06965 -9.79112
ltibia -2.52083
lfoot -9.22254 5.05829
ltoes 27.0196
106
root 8.31348 18.0633 -0.284209 1.96598 -57.2966 2.48301
lowerback -7.05258 1.28365 1.36702
upperback -0.660608 1.64427 -1.55759
thorax 3.3561 0.841236 -2.21585
lowerneck -0.0127775 -1.19749 -2.85747
upperneck 6.94872 -1.93615 5.53006
head 2.30403 -0.926921 2.23756
rclavicle 3.39099e-014 -6.36111e-015
rhumerus -39.9355 -11.8864 -80.8547
rradius 26.3205
rwrist 3.13183
rhand -9.14548 -39.6279
rfingers 7.12502
rthumb 16.8064 -68.9206
lclavicle 3.39099e-014 -6.36111e-015
lhumerus -32.9423 -0.917361 83.3854
lradius 22.7432
lwrist 9.59927
lhand -3.24181 -13.9913
lfingers 7.12502
lthumb 22.4819 14.7201
rfemur 10.3196 13.8497 17.6775
rtibia -3.73942
rfoot -23.2523 -29.1019
rtoes 1.27756
lfemur 1.87285 -5.15434 -9.94146
ltibia -2.54095
lfoot -9.24107 5.11076
ltoes 26.9378
